<svg width="203" height="203" viewBox="0 0 203 203" fill="none" xmlns="http://www.w3.org/2000/svg">
<rect width="203" height="203" fill="white"/>
<circle cx="101.5" cy="101.5" r="99.5" stroke="#0a0a45" stroke-width="4"/>
<path d="M71.7935 51.924V152H41.1523V51.924H71.7935ZM80.0874 51.924H124.644C140.105 51.924 152.474 56.4218 161.469 65.2768C170.606 74.1319 175.103 86.2197 175.103 101.681C175.103 118.267 170.746 130.776 162.032 139.209C153.317 147.783 140.667 152 124.222 152H80.0874V51.924ZM110.026 77.0836V126.84H122.114C129.563 126.84 135.185 124.592 138.98 120.375C142.775 116.018 144.603 109.974 144.603 102.243C144.603 93.9503 142.494 87.6253 137.997 83.4086C133.499 79.1919 127.314 77.0836 119.162 77.0836H110.026Z" fill="#0a0a45"/>
</svg> 